<?xml version="1.0" encoding="UTF-8" standalone="no"?>
<!-- Created with Inkscape (http://www.inkscape.org/) -->

<svg
   width="128mm"
   height="128mm"
   viewBox="0 0 128 128"
   version="1.1"
   id="svg5"
   xml:space="preserve"
   inkscape:version="1.2.2 (b0a8486541, 2022-12-01)"
   sodipodi:docname="drawing-1.svg"
   xmlns:inkscape="http://www.inkscape.org/namespaces/inkscape"
   xmlns:sodipodi="http://sodipodi.sourceforge.net/DTD/sodipodi-0.dtd"
   xmlns="http://www.w3.org/2000/svg"
   xmlns:svg="http://www.w3.org/2000/svg"><sodipodi:namedview
     id="namedview7"
     pagecolor="#ffffff"
     bordercolor="#666666"
     borderopacity="1.0"
     inkscape:showpageshadow="2"
     inkscape:pageopacity="0.0"
     inkscape:pagecheckerboard="0"
     inkscape:deskcolor="#d1d1d1"
     inkscape:document-units="mm"
     showgrid="false"
     inkscape:zoom="0.47748556"
     inkscape:cx="146.60129"
     inkscape:cy="104.71521"
     inkscape:window-width="1920"
     inkscape:window-height="1019"
     inkscape:window-x="0"
     inkscape:window-y="0"
     inkscape:window-maximized="1"
     inkscape:current-layer="layer1"
     showguides="true" /><defs
     id="defs2" /><g
     inkscape:groupmode="layer"
     id="layer2"
     inkscape:label="Layer 2"
     style="display:none"
     transform="translate(-55.023457,-92.433728)"><circle
       style="fill:#ffff00;stroke-width:11.6414;stop-color:#000000"
       id="circle592"
       cx="105"
       cy="148.867"
       r="55.013527" /><circle
       style="fill:#800080;stroke-width:5.89243;stop-color:#000000"
       id="circle596"
       cx="105"
       cy="148.867"
       r="27.845865" /><circle
       style="fill:#0000ff;stroke-width:4.02057;stop-color:#000000"
       id="path590"
       cx="105"
       cy="148.867"
       r="19" /></g><g
     inkscape:label="Layer 1"
     inkscape:groupmode="layer"
     id="layer1"
     transform="translate(-55.023457,-92.433728)"><circle
       style="fill:#0000ff;stroke-width:0.962824;stop-color:#000000"
       id="circle642"
       cx="156.89124"
       cy="177.14429"
       r="4.5500002" /><path
       sodipodi:type="star"
       style="fill:#000080;stroke-width:4;stop-color:#000000"
       id="path416"
       inkscape:flatsided="true"
       sodipodi:sides="6"
       sodipodi:cx="49.908146"
       sodipodi:cy="52.08918"
       sodipodi:r1="24.111067"
       sodipodi:r2="20.880795"
       sodipodi:arg1="0.52359878"
       sodipodi:arg2="1.0471976"
       inkscape:rounded="0"
       inkscape:randomized="0"
       d="M 70.788942,64.144713 49.908146,76.200247 29.027349,64.144713 29.02735,40.033646 49.908146,27.978113 70.788942,40.033647 Z"
       transform="matrix(0.78905891,0,0,0.78905891,79.951677,115.6993)" /><path
       sodipodi:type="star"
       style="fill:#000080;stroke-width:4;stop-color:#000000"
       id="path420"
       inkscape:flatsided="true"
       sodipodi:sides="6"
       sodipodi:cx="49.908146"
       sodipodi:cy="52.08918"
       sodipodi:r1="24.111067"
       sodipodi:r2="20.880795"
       sodipodi:arg1="0.52359878"
       sodipodi:arg2="1.0471976"
       inkscape:rounded="0"
       inkscape:randomized="0"
       d="M 70.788942,64.144713 49.908146,76.200247 29.027349,64.144713 29.02735,40.033646 49.908146,27.978113 70.788942,40.033647 Z"
       transform="matrix(0,0.18871002,-0.18871002,0,110.20883,133.72101)" /><path
       sodipodi:type="star"
       style="fill:#000080;stroke-width:4;stop-color:#000000"
       id="path476"
       inkscape:flatsided="true"
       sodipodi:sides="6"
       sodipodi:cx="49.908146"
       sodipodi:cy="52.08918"
       sodipodi:r1="24.111067"
       sodipodi:r2="20.880795"
       sodipodi:arg1="0.52359878"
       sodipodi:arg2="1.0471976"
       inkscape:rounded="0"
       inkscape:randomized="0"
       d="M 70.788942,64.144713 49.908146,76.200247 29.027349,64.144713 29.02735,40.033646 49.908146,27.978113 70.788942,40.033647 Z"
       transform="matrix(0,0.18871002,-0.18871002,0,110.20883,161.03889)" /><path
       sodipodi:type="star"
       style="fill:#000080;stroke-width:4;stop-color:#000000"
       id="path478"
       inkscape:flatsided="true"
       sodipodi:sides="6"
       sodipodi:cx="49.908146"
       sodipodi:cy="52.08918"
       sodipodi:r1="24.111067"
       sodipodi:r2="20.880795"
       sodipodi:arg1="0.52359878"
       sodipodi:arg2="1.0471976"
       inkscape:rounded="0"
       inkscape:randomized="0"
       d="M 70.788942,64.144713 49.908146,76.200247 29.027349,64.144713 29.02735,40.033646 49.908146,27.978113 70.788942,40.033647 Z"
       transform="matrix(0,0.18871002,-0.18871002,0,129.16189,170.73704)" /><path
       sodipodi:type="star"
       style="fill:#000080;stroke-width:4;stop-color:#000000"
       id="path480"
       inkscape:flatsided="true"
       sodipodi:sides="6"
       sodipodi:cx="49.908146"
       sodipodi:cy="52.08918"
       sodipodi:r1="24.111067"
       sodipodi:r2="20.880795"
       sodipodi:arg1="0.52359878"
       sodipodi:arg2="1.0471976"
       inkscape:rounded="0"
       inkscape:randomized="0"
       d="M 70.788942,64.144713 49.908146,76.200247 29.027349,64.144713 29.02735,40.033646 49.908146,27.978113 70.788942,40.033647 Z"
       transform="matrix(0,0.18871002,-0.18871002,0,147.91746,161.03889)" /><path
       sodipodi:type="star"
       style="fill:#000080;stroke-width:4;stop-color:#000000"
       id="path482"
       inkscape:flatsided="true"
       sodipodi:sides="6"
       sodipodi:cx="49.908146"
       sodipodi:cy="52.08918"
       sodipodi:r1="24.111067"
       sodipodi:r2="20.880795"
       sodipodi:arg1="0.52359878"
       sodipodi:arg2="1.0471976"
       inkscape:rounded="0"
       inkscape:randomized="0"
       d="M 70.788942,64.144713 49.908146,76.200247 29.027349,64.144713 29.02735,40.033646 49.908146,27.978113 70.788942,40.033647 Z"
       transform="matrix(0,0.18871002,-0.18871002,0,147.91746,133.72101)" /><path
       sodipodi:type="star"
       style="fill:#000080;stroke-width:4;stop-color:#000000"
       id="path484"
       inkscape:flatsided="true"
       sodipodi:sides="6"
       sodipodi:cx="49.908146"
       sodipodi:cy="52.08918"
       sodipodi:r1="24.111067"
       sodipodi:r2="20.880795"
       sodipodi:arg1="0.52359878"
       sodipodi:arg2="1.0471976"
       inkscape:rounded="0"
       inkscape:randomized="0"
       d="M 70.788942,64.144713 49.908146,76.200247 29.027349,64.144713 29.02735,40.033646 49.908146,27.978113 70.788942,40.033647 Z"
       transform="matrix(0,0.18871002,-0.18871002,0,129.16189,123.94519)" /><path
       id="circle638"
       style="fill:#0000ff;stroke-width:2.49699;stop-color:#000000"
       d="m 156.891,125.68566 a 11.8,11.8 0 0 0 -11.7998,11.80032 11.8,11.8 0 0 0 11.7998,11.79979 11.8,11.8 0 0 0 11.80031,-11.79979 11.8,11.8 0 0 0 -11.80031,-11.80032 z m 0,4.47518 a 7.3249998,7.3249998 0 0 1 7.32513,7.32514 7.3249998,7.3249998 0 0 1 -7.32513,7.32513 7.3249998,7.3249998 0 0 1 -7.32462,-7.32513 7.3249998,7.3249998 0 0 1 7.32462,-7.32514 z" /><circle
       style="fill:#000080;stroke-width:1.55004;stop-color:#000000"
       id="circle640"
       cx="127.73418"
       cy="121.6006"
       r="7.3249998" /><circle
       style="fill:#000080;stroke-width:1.55004;stop-color:#000000"
       id="circle654"
       cx="119.33215"
       cy="107.69246"
       r="7.3249998" /><circle
       style="fill:#000080;stroke-width:1.55004;stop-color:#000000"
       id="circle656"
       cx="119.33215"
       cy="205.175"
       r="7.3249998" /><circle
       style="fill:#000080;stroke-width:1.55004;stop-color:#000000"
       id="circle658"
       cx="110.98682"
       cy="191.26686"
       r="7.3249998" /><path
       id="path669"
       style="fill:#000080;stroke-width:2.49699;stop-color:#000000"
       d="m 156.89098,165.34423 a 11.8,11.8 0 0 0 -11.79979,11.80032 11.8,11.8 0 0 0 11.79979,11.7998 11.8,11.8 0 0 0 11.80031,-11.7998 11.8,11.8 0 0 0 -11.80031,-11.80032 z m 0,4.47518 a 7.3249998,7.3249998 0 0 1 7.32514,7.32514 7.3249998,7.3249998 0 0 1 -7.32514,7.32514 7.3249998,7.3249998 0 0 1 -7.32462,-7.32514 7.3249998,7.3249998 0 0 1 7.32462,-7.32514 z" /><path
       id="path671"
       style="fill:#0000ff;stroke-width:2.49699;stop-color:#000000"
       d="m 82.31991,165.34423 a 11.8,11.8 0 0 0 -11.799797,11.80032 11.8,11.8 0 0 0 11.799797,11.7998 11.8,11.8 0 0 0 11.800313,-11.7998 11.8,11.8 0 0 0 -11.800313,-11.80032 z m 0,4.47518 a 7.3249998,7.3249998 0 0 1 7.325134,7.32514 7.3249998,7.3249998 0 0 1 -7.325134,7.32514 7.3249998,7.3249998 0 0 1 -7.324618,-7.32514 7.3249998,7.3249998 0 0 1 7.324618,-7.32514 z" /><path
       id="path673"
       style="fill:#0000ff;stroke-width:2.49699;stop-color:#000000"
       d="M 81.155397,125.68583 A 11.8,11.8 0 0 0 69.3556,137.48615 11.8,11.8 0 0 0 81.155397,149.28594 11.8,11.8 0 0 0 92.95571,137.48615 11.8,11.8 0 0 0 81.155397,125.68583 Z m 0,4.47518 a 7.3249998,7.3249998 0 0 1 7.325134,7.32514 7.3249998,7.3249998 0 0 1 -7.325134,7.32513 7.3249998,7.3249998 0 0 1 -7.324618,-7.32513 7.3249998,7.3249998 0 0 1 7.324618,-7.32514 z" /><circle
       style="fill:#0000ff;stroke-width:0.962824;stop-color:#000000"
       id="circle779"
       cx="147.45387"
       cy="145.77415"
       r="4.5500002" /><circle
       style="fill:#0000ff;stroke-width:0.962824;stop-color:#000000"
       id="circle781"
       cx="91.645966"
       cy="168.34906"
       r="4.5500002" /></g></svg>
